<?xml version="1.0" encoding="UTF-8"?>
<!DOCTYPE svg PUBLIC "-//W3C//DTD SVG 1.1//EN" "http://www.w3.org/Graphics/SVG/1.1/DTD/svg11.dtd">
<svg xmlns="http://www.w3.org/2000/svg" version="1.1" width="512px" height="512px" style="shape-rendering:geometricPrecision; text-rendering:geometricPrecision; image-rendering:optimizeQuality; fill-rule:evenodd; clip-rule:evenodd" xmlns:xlink="http://www.w3.org/1999/xlink">
<g><path style="opacity:0.997" fill="#e54c3c" d="M 173.5,-0.5 C 177.833,-0.5 182.167,-0.5 186.5,-0.5C 275.5,15.5 364.5,31.5 453.5,47.5C 452.25,47.5774 451.417,48.244 451,49.5C 435.261,141.271 419.094,232.937 402.5,324.5C 401.167,324.5 399.833,324.5 398.5,324.5C 310.404,309.715 222.404,294.215 134.5,278C 126.578,276.708 120.078,279.208 115,285.5C 114.536,284.906 114.369,284.239 114.5,283.5C 125.314,220.133 136.314,156.8 147.5,93.5C 152.008,66.1178 156.842,38.7845 162,11.5C 164.019,5.64984 167.852,1.64984 173.5,-0.5 Z"/></g>
<g><path style="opacity:1" fill="#425b6b" d="M 197.5,39.5 C 267.085,50.2641 336.418,62.4308 405.5,76C 410.952,81.3996 410.619,86.3996 404.5,91C 400.5,91.6667 396.5,91.6667 392.5,91C 328.202,79.5613 263.869,68.228 199.5,57C 192.608,54.149 190.775,49.3157 194,42.5C 195.145,41.3636 196.312,40.3636 197.5,39.5 Z"/></g>
<g><path style="opacity:1" fill="#c03a2b" d="M 453.5,47.5 C 484.534,51.8706 503.867,69.2039 511.5,99.5C 511.5,106.833 511.5,114.167 511.5,121.5C 495.167,212.167 478.833,302.833 462.5,393.5C 460.532,352.532 439.199,329.532 398.5,324.5C 399.833,324.5 401.167,324.5 402.5,324.5C 419.094,232.937 435.261,141.271 451,49.5C 451.417,48.244 452.25,47.5774 453.5,47.5 Z"/></g>
<g><path style="opacity:1" fill="#435b6b" d="M 225.5,88.5 C 270.566,95.9 315.566,103.733 360.5,112C 366.095,114.354 367.928,118.521 366,124.5C 364.059,127.558 361.226,129.225 357.5,129.5C 313.435,121.987 269.435,114.154 225.5,106C 219.908,103.598 218.075,99.4309 220,93.5C 221.73,91.5981 223.563,89.9314 225.5,88.5 Z"/></g>
<g><path style="opacity:0.996" fill="#35495d" d="M 147.5,93.5 C 136.314,156.8 125.314,220.133 114.5,283.5C 110.915,292.72 112.249,301.22 118.5,309C 120.818,310.993 123.484,312.159 126.5,312.5C 123.82,329.889 120.82,347.222 117.5,364.5C 101.676,365.655 95.3422,373.988 98.5,389.5C 76.8594,394.91 61.6928,407.91 53,428.5C 50.9322,436.391 49.0988,444.057 47.5,451.5C 32.1166,360.597 16.1166,269.931 -0.5,179.5C -0.5,174.833 -0.5,170.167 -0.5,165.5C 4.55004,135.613 21.8834,117.113 51.5,110C 83.4789,104.304 115.479,98.8039 147.5,93.5 Z"/></g>
<g><path style="opacity:1" fill="#eceff0" d="M 188.5,136.5 C 246.257,145.728 303.924,155.561 361.5,166C 368.362,167.03 375.029,168.696 381.5,171C 383.429,174.256 383.929,177.756 383,181.5C 378.222,210.948 372.889,240.281 367,269.5C 365.13,272.018 362.63,273.352 359.5,273.5C 298.135,262.773 236.802,251.939 175.5,241C 168.868,237.903 166.701,232.736 169,225.5C 173.696,197.02 179.03,168.687 185,140.5C 186.376,139.295 187.542,137.962 188.5,136.5 Z"/></g>
<g><path style="opacity:0.999" fill="#802f34" d="M 398.5,324.5 C 439.199,329.532 460.532,352.532 462.5,393.5C 458.612,422.389 442.612,440.722 414.5,448.5C 406.861,449.525 399.195,449.691 391.5,449C 370.206,445.176 348.873,441.676 327.5,438.5C 276.716,428.979 225.716,419.979 174.5,411.5C 152.69,407.039 130.69,402.873 108.5,399C 104.007,397.006 100.674,393.84 98.5,389.5C 95.3422,373.988 101.676,365.655 117.5,364.5C 209.609,381.409 301.943,397.909 394.5,414C 409.829,415.923 420.329,409.756 426,395.5C 429.142,378.607 422.642,367.44 406.5,362C 313.15,345.608 219.816,329.108 126.5,312.5C 123.484,312.159 120.818,310.993 118.5,309C 112.249,301.22 110.915,292.72 114.5,283.5C 114.369,284.239 114.536,284.906 115,285.5C 120.078,279.208 126.578,276.708 134.5,278C 222.404,294.215 310.404,309.715 398.5,324.5 Z"/></g>
<g><path style="opacity:1" fill="#f8e8af" d="M 126.5,312.5 C 219.816,329.108 313.15,345.608 406.5,362C 422.642,367.44 429.142,378.607 426,395.5C 420.329,409.756 409.829,415.923 394.5,414C 301.943,397.909 209.609,381.409 117.5,364.5C 120.82,347.222 123.82,329.889 126.5,312.5 Z"/></g>
<g><path style="opacity:0.996" fill="#2c3e50" d="M 98.5,389.5 C 100.674,393.84 104.007,397.006 108.5,399C 130.69,402.873 152.69,407.039 174.5,411.5C 150.812,415.505 127.145,419.672 103.5,424C 85.6476,432.203 80.481,445.37 88,463.5C 92.5215,470.009 98.6882,474.175 106.5,476C 115.202,475.663 123.869,474.663 132.5,473C 197.466,461.283 262.466,449.783 327.5,438.5C 348.873,441.676 370.206,445.176 391.5,449C 399.195,449.691 406.861,449.525 414.5,448.5C 412.207,455.957 407.207,460.457 399.5,462C 306.975,478.208 214.642,494.708 122.5,511.5C 115.167,511.5 107.833,511.5 100.5,511.5C 69.5301,503.516 51.8634,483.516 47.5,451.5C 49.0988,444.057 50.9322,436.391 53,428.5C 61.6928,407.91 76.8594,394.91 98.5,389.5 Z"/></g>
<g><path style="opacity:1" fill="#f7e9af" d="M 174.5,411.5 C 225.716,419.979 276.716,428.979 327.5,438.5C 262.466,449.783 197.466,461.283 132.5,473C 123.869,474.663 115.202,475.663 106.5,476C 98.6882,474.175 92.5215,470.009 88,463.5C 80.481,445.37 85.6476,432.203 103.5,424C 127.145,419.672 150.812,415.505 174.5,411.5 Z"/></g>
</svg>
